<?xml version="1.0" standalone="no"?>
<!DOCTYPE svg PUBLIC "-//W3C//DTD SVG 20010904//EN"
 "http://www.w3.org/TR/2001/REC-SVG-20010904/DTD/svg10.dtd">
<svg version="1.0" xmlns="http://www.w3.org/2000/svg"
 width="530.000000pt" height="530.000000pt" viewBox="0 0 530.000000 530.000000"
 preserveAspectRatio="xMidYMid meet">
<metadata>
Created by potrace 1.14, written by Peter Selinger 2001-2017
</metadata>
<g transform="translate(0.000000,530.000000) scale(0.100000,-0.100000)"
fill="#000000" stroke="none">
<path d="M2597 5083 c-2 -4 -8 -66 -11 -138 -4 -71 -10 -161 -13 -200 -4 -38
-7 -87 -7 -107 -1 -21 -3 -38 -6 -38 -3 0 -4 -27 -3 -60 2 -53 -1 -61 -20 -72
-12 -6 -23 -11 -24 -10 -2 1 -4 2 -5 1 -2 0 -14 -2 -28 -5 -14 -2 -32 -7 -40
-11 -8 -3 -21 -7 -28 -9 -8 -1 -21 -6 -30 -10 -9 -4 -24 -8 -32 -10 -20 -4
-60 23 -60 40 0 8 -3 16 -7 18 -9 4 -57 66 -93 120 -14 21 -28 38 -32 38 -5 0
-8 4 -8 10 0 8 -39 65 -83 120 -7 8 -23 31 -37 50 -14 19 -34 45 -45 58 -18
21 -20 21 -26 5 -3 -10 -3 -29 2 -43 9 -30 57 -243 63 -282 3 -17 -1 -28 -10
-32 -10 -4 -13 -1 -9 7 4 6 0 4 -8 -6 -9 -10 -18 -18 -21 -19 -21 0 -45 -12
-40 -19 5 -8 -9 -13 -28 -10 -5 0 -8 -4 -8 -9 0 -6 -7 -10 -15 -10 -8 0 -15
-5 -15 -12 0 -6 -3 -9 -6 -5 -4 3 -12 1 -20 -6 -33 -30 -42 -35 -48 -30 -3 4
-6 1 -6 -5 0 -7 -7 -12 -16 -12 -8 0 -12 -4 -9 -10 3 -5 -1 -10 -9 -10 -8 0
-21 -8 -28 -17 -17 -24 -52 -28 -68 -8 -7 8 -19 15 -26 15 -8 0 -14 4 -14 8 0
5 -27 28 -60 52 -33 24 -60 47 -60 52 0 4 -5 8 -11 8 -6 0 -26 12 -45 26 -29
22 -35 24 -40 10 -3 -8 4 -29 16 -46 12 -16 18 -30 15 -30 -3 0 3 -13 14 -29
12 -16 21 -34 21 -40 0 -6 5 -11 10 -11 6 0 10 -9 10 -20 0 -11 4 -20 9 -20 5
0 15 -16 22 -35 7 -19 16 -35 20 -35 4 0 9 -10 11 -22 2 -16 -10 -36 -41 -67
-24 -25 -63 -69 -88 -98 -24 -30 -48 -60 -53 -66 -48 -57 -58 -72 -53 -80 7
-11 -81 -2 -100 10 -7 4 -14 8 -17 9 -3 0 -27 11 -55 23 -27 13 -57 24 -65 27
-8 2 -36 11 -62 21 -26 10 -51 14 -55 9 -4 -5 -2 -11 5 -13 6 -3 12 -11 12
-19 0 -8 4 -14 9 -14 4 0 51 -44 102 -97 52 -53 128 -131 169 -172 41 -42 74
-80 72 -86 -2 -5 -1 -7 3 -3 11 11 35 -18 35 -41 0 -11 -4 -23 -10 -26 -5 -3
-10 -13 -10 -21 0 -9 -6 -21 -13 -28 -7 -8 -19 -33 -27 -57 -15 -45 -39 -81
-49 -74 -3 2 -51 6 -106 9 -55 3 -122 8 -150 11 -27 2 -77 7 -110 9 -33 3 -98
8 -145 12 -82 7 -84 7 -66 -12 11 -10 45 -32 76 -49 32 -16 91 -47 131 -69 41
-21 81 -44 89 -51 8 -7 44 -27 80 -45 35 -18 82 -43 103 -57 38 -24 38 -24 32
-76 -8 -68 -26 -181 -28 -182 -3 -1 -125 -26 -157 -32 -14 -2 -50 -10 -80 -18
-30 -8 -113 -26 -185 -40 -143 -29 -180 -48 -124 -61 19 -4 37 -9 42 -10 4 -1
8 -2 10 -3 1 -2 13 -4 27 -6 14 -2 79 -16 145 -30 156 -35 155 -34 190 -40 70
-12 130 -29 137 -38 3 -6 5 -34 5 -63 -1 -28 1 -50 5 -47 5 2 8 -9 8 -26 0
-16 4 -41 9 -54 11 -29 -7 -50 -79 -88 -25 -13 -47 -27 -48 -32 -2 -4 -7 -5
-12 -2 -5 3 -16 -2 -24 -11 -9 -8 -16 -13 -16 -9 0 3 -12 -2 -27 -13 -16 -10
-62 -36 -103 -57 -41 -21 -83 -45 -92 -53 -10 -8 -18 -12 -18 -8 0 3 -18 -5
-40 -19 -22 -14 -44 -25 -49 -25 -5 0 -15 -7 -22 -16 -12 -14 -5 -15 76 -9
111 8 298 23 385 31 148 13 149 13 176 -53 9 -21 25 -58 37 -83 11 -25 22 -52
24 -61 2 -16 -100 -129 -116 -129 -4 0 -13 -10 -20 -23 -7 -12 -52 -62 -100
-110 -48 -48 -86 -87 -84 -87 3 0 -10 -12 -29 -27 -54 -45 -60 -52 -52 -64 4
-7 3 -9 -4 -5 -6 3 -13 2 -17 -4 -10 -16 9 -12 92 21 43 16 86 32 97 34 10 2
23 8 30 13 6 5 39 18 72 30 60 19 62 19 78 1 9 -11 16 -22 16 -25 0 -5 11 -19
38 -49 6 -7 12 -17 12 -22 0 -4 20 -27 45 -51 24 -23 45 -46 46 -50 0 -4 5 -6
10 -5 5 2 9 -4 9 -13 0 -8 5 -12 10 -9 6 3 10 -1 10 -9 0 -8 9 -18 20 -21 11
-4 18 -11 15 -16 -4 -5 -1 -9 4 -9 11 0 11 -20 1 -30 -3 -3 -13 -21 -24 -40
-10 -19 -41 -78 -68 -130 -28 -52 -55 -99 -59 -105 -5 -5 -9 -14 -9 -21 0 -20
33 -5 74 32 20 19 41 34 47 34 5 0 9 5 9 10 0 6 5 10 10 10 6 0 19 8 29 17 35
33 93 78 117 90 20 12 25 10 44 -15 12 -15 24 -25 26 -22 2 3 13 -3 24 -12 11
-10 25 -18 30 -18 6 0 10 -5 10 -12 0 -6 3 -9 6 -6 3 3 17 -5 31 -18 14 -13
28 -22 30 -20 3 2 13 -4 24 -15 11 -11 24 -17 29 -14 6 4 10 1 10 -4 0 -6 7
-11 15 -11 8 0 15 -4 15 -10 0 -5 9 -10 20 -10 11 0 20 -5 20 -11 0 -5 4 -8 9
-5 4 3 7 -5 5 -17 -3 -23 -29 -147 -38 -182 -17 -68 -36 -169 -32 -172 6 -6
46 35 46 47 0 6 5 10 10 10 6 0 10 5 10 11 0 6 6 16 12 23 7 8 20 23 28 36 27
39 199 274 220 300 11 14 20 31 20 38 0 7 4 11 9 8 5 -4 11 -1 13 5 3 9 100
-13 168 -38 8 -3 21 -7 28 -9 38 -7 43 -15 42 -56 -1 -24 1 -76 5 -116 3 -40
7 -94 10 -119 2 -25 7 -111 11 -190 4 -86 11 -142 17 -140 7 2 67 148 65 160
0 1 5 13 10 27 6 14 23 59 37 100 15 41 29 82 32 90 3 8 7 21 9 28 1 8 6 21
10 30 4 9 8 19 9 22 1 3 5 13 8 23 12 29 18 52 16 52 -1 0 3 10 9 22 11 20 19
22 125 22 62 0 118 -3 124 -7 6 -4 13 -18 14 -32 2 -14 7 -27 11 -30 4 -3 9
-15 11 -25 4 -20 11 -40 27 -80 4 -11 13 -36 20 -55 7 -19 16 -44 20 -55 5
-11 20 -56 35 -100 15 -44 31 -89 35 -100 5 -11 12 -31 16 -45 4 -13 13 -30
20 -38 12 -11 14 -11 15 5 0 10 2 29 3 43 2 14 6 86 10 160 4 74 9 151 12 170
2 19 4 70 5 112 0 43 5 80 10 83 4 3 6 11 3 18 -3 9 19 19 68 32 40 10 75 18
77 16 2 -1 7 2 10 7 10 16 65 23 81 9 18 -14 70 -83 70 -92 0 -3 9 -15 20 -27
11 -12 20 -28 20 -35 0 -7 7 -13 15 -13 8 0 15 -5 15 -10 0 -12 130 -193 142
-198 5 -2 8 -9 8 -16 0 -7 11 -22 25 -34 22 -19 26 -20 31 -7 8 19 4 43 -31
195 -15 63 -28 122 -30 130 -2 8 -8 35 -15 59 -6 23 -9 46 -6 49 3 3 2 10 -3
16 -5 6 -11 28 -14 49 -3 21 -7 41 -11 44 -8 8 14 27 80 69 32 21 68 46 78 56
29 27 58 22 96 -17 19 -19 39 -35 46 -35 6 0 14 -7 18 -15 3 -8 10 -15 15 -15
6 0 21 -9 33 -21 13 -11 59 -48 103 -81 44 -34 83 -66 86 -71 3 -5 10 -9 15
-9 16 -1 44 -25 37 -31 -3 -4 1 -7 10 -7 10 0 17 -4 17 -10 0 -5 5 -10 11 -10
6 0 17 -7 26 -15 8 -9 18 -13 21 -10 6 6 -48 117 -63 127 -6 5 -6 8 0 8 6 0 6
3 0 8 -6 4 -22 30 -35 57 -14 28 -28 52 -32 55 -4 3 -15 23 -24 45 l-16 39 37
33 c21 18 35 33 32 33 -3 0 12 18 34 41 21 22 39 45 39 50 0 6 5 7 10 4 6 -3
10 1 10 10 0 10 5 13 12 9 7 -4 8 -3 4 4 -4 7 4 23 18 37 14 14 27 29 28 33 2
4 7 6 11 4 5 -1 6 1 4 5 -7 11 15 39 28 37 6 0 19 -4 30 -9 11 -4 56 -21 100
-37 44 -16 89 -33 100 -38 96 -42 115 -48 115 -38 0 6 -57 69 -127 140 -71 70
-129 133 -131 138 -2 6 3 13 12 16 8 3 12 12 9 20 -3 8 0 14 7 14 6 0 8 5 5
10 -3 6 -2 10 2 10 10 0 37 59 36 78 -1 6 3 12 8 12 5 0 9 7 9 15 0 8 5 15 12
15 6 0 8 3 5 7 -4 3 -1 13 6 21 10 13 9 15 -3 8 -13 -6 -13 -6 0 6 9 7 15 20
15 28 0 8 6 21 15 28 13 12 13 12 0 6 -10 -5 -8 1 5 16 13 15 15 21 5 16 -8
-4 -7 -1 3 7 10 9 19 19 20 24 2 9 51 7 222 -7 61 -6 118 -10 128 -10 31 0 18
16 -33 40 -27 13 -50 27 -50 32 0 4 -7 8 -15 8 -9 0 -33 11 -54 24 -21 14 -42
22 -45 19 -3 -4 -6 -2 -6 4 0 5 -22 20 -50 32 -27 12 -50 28 -50 33 0 6 -3 9
-6 6 -3 -4 -33 9 -66 28 -33 19 -62 34 -64 34 -2 0 -23 11 -45 25 -28 18 -39
31 -35 43 9 31 17 76 23 145 3 37 10 70 15 73 4 3 29 9 56 14 45 8 174 34 217
44 11 3 74 16 140 31 66 14 127 27 134 29 18 3 26 22 13 30 -5 3 -22 7 -38 10
-30 6 -124 24 -159 32 -25 5 -57 12 -115 25 -25 5 -54 11 -65 13 -117 23 -141
29 -150 34 -5 4 -17 7 -25 7 -11 0 -17 23 -26 95 -6 52 -14 105 -18 117 -6 18
0 26 31 47 21 14 43 26 50 26 7 0 13 5 13 12 0 6 3 9 6 5 3 -3 24 5 45 19 21
13 42 24 46 24 5 0 19 9 33 20 14 11 33 20 43 20 9 0 17 5 17 10 0 6 5 10 10
10 6 0 28 11 50 25 22 14 46 25 54 25 8 0 16 4 18 8 2 4 25 19 53 33 73 39 72
53 -6 45 -35 -3 -102 -8 -149 -12 -47 -3 -95 -7 -108 -9 -17 -3 -224 -16 -262
-17 -23 -1 -31 7 -41 42 -7 22 -16 40 -21 40 -4 0 -7 3 -6 8 1 4 -6 24 -15 45
-9 20 -16 38 -15 40 1 1 -4 11 -10 23 -9 17 -7 25 12 47 13 15 26 24 30 20 3
-3 6 -2 6 3 0 6 59 69 130 141 72 71 130 129 130 127 0 -2 25 23 55 56 30 33
55 62 55 64 0 6 -28 1 -36 -7 -4 -4 -14 -7 -23 -7 -9 0 -29 -7 -45 -15 -15 -8
-32 -15 -37 -15 -6 0 -25 -7 -45 -15 -19 -8 -36 -15 -39 -15 -3 -1 -30 -12
-60 -25 -31 -14 -64 -25 -75 -25 -11 0 -20 -4 -20 -8 0 -5 -27 -16 -60 -26
-33 -10 -60 -22 -60 -28 0 -5 -6 -8 -12 -6 -7 1 -23 -3 -36 -10 -24 -14 -39
-3 -95 70 -12 16 -38 46 -58 66 -39 39 -39 48 5 100 11 12 17 22 13 22 -4 0 7
23 23 50 17 28 30 55 30 60 0 6 5 10 10 10 6 0 10 9 10 20 0 11 5 20 11 20 5
0 7 5 4 10 -3 6 -2 10 4 10 5 0 13 10 17 23 4 12 10 24 13 27 4 3 15 23 25 45
10 22 25 48 34 58 8 9 11 17 7 17 -4 0 -1 8 7 18 16 18 48 76 48 87 0 11 -45
-7 -53 -21 -4 -8 -12 -14 -17 -14 -5 0 -20 -10 -33 -22 -25 -24 -39 -35 -102
-83 -22 -16 -41 -33 -43 -37 -2 -4 -10 -8 -17 -8 -7 0 -15 -3 -17 -8 -1 -4
-23 -23 -48 -42 -25 -19 -48 -39 -52 -45 -4 -5 -8 -7 -8 -2 0 4 -8 -1 -18 -10
-38 -36 -77 -63 -92 -63 -9 0 -25 8 -36 18 -10 10 -47 35 -82 57 -35 21 -65
42 -68 46 -6 10 8 93 41 234 77 339 78 347 45 338 -11 -3 -20 -9 -20 -13 0 -5
-6 -15 -13 -22 -7 -7 -31 -38 -52 -68 -73 -106 -110 -155 -117 -158 -5 -2 -8
-8 -8 -14 0 -5 -7 -16 -15 -25 -9 -8 -34 -42 -56 -74 -53 -78 -62 -82 -135
-58 -32 11 -68 22 -79 24 -11 2 -22 5 -25 6 -3 1 -12 2 -20 3 -21 1 -45 77
-28 88 7 4 9 8 3 8 -5 0 -10 15 -11 33 -1 17 -4 70 -8 117 -3 47 -9 121 -12
165 -3 44 -7 81 -9 83 -2 2 -17 6 -33 8 -27 4 -31 1 -43 -33 -7 -21 -12 -41
-11 -45 1 -5 -3 -8 -9 -8 -5 0 -8 -4 -4 -9 3 -5 1 -12 -5 -16 -6 -4 -8 -10 -5
-15 3 -5 1 -11 -5 -15 -5 -3 -10 -17 -10 -30 0 -13 -5 -27 -10 -30 -6 -4 -8
-11 -5 -16 4 -5 1 -9 -4 -9 -6 0 -10 -3 -10 -7 1 -5 0 -11 -1 -15 -1 -5 -3
-11 -4 -15 -2 -11 -36 -104 -46 -128 -5 -11 -11 -27 -12 -35 -2 -8 -7 -18 -12
-21 -11 -8 -251 -11 -243 -3 3 4 0 19 -8 35 -8 15 -17 36 -18 46 -2 10 -9 29
-14 43 -11 25 -52 141 -93 260 -58 166 -73 200 -83 183z"/>
</g>
</svg>
